<svg xmlns="http://www.w3.org/2000/svg" width="1024" height="1024" viewBox="0 0 1024 1024" role="img" aria-label="A-share ETF research app icon">
  <defs>
    <linearGradient id="bg" x1="140" y1="120" x2="884" y2="920" gradientUnits="userSpaceOnUse">
      <stop offset="0" stop-color="#f7fbff"/>
      <stop offset="0.48" stop-color="#eaf4ff"/>
      <stop offset="1" stop-color="#dfeeff"/>
    </linearGradient>
    <linearGradient id="line" x1="202" y1="690" x2="822" y2="310" gradientUnits="userSpaceOnUse">
      <stop offset="0" stop-color="#0a84ff"/>
      <stop offset="0.52" stop-color="#34c759"/>
      <stop offset="1" stop-color="#ff9f0a"/>
    </linearGradient>
    <filter id="shadow" x="-20%" y="-20%" width="140%" height="140%">
      <feDropShadow dx="0" dy="28" stdDeviation="34" flood-color="#0b1b3a" flood-opacity="0.18"/>
    </filter>
  </defs>
  <rect x="96" y="96" width="832" height="832" rx="210" fill="url(#bg)" filter="url(#shadow)"/>
  <rect x="182" y="206" width="660" height="612" rx="72" fill="#ffffff" fill-opacity="0.72" stroke="#0b1b3a" stroke-opacity="0.08" stroke-width="5"/>
  <g stroke="#1d1d1f" stroke-opacity="0.09" stroke-width="4">
    <path d="M244 688h536"/>
    <path d="M244 574h536"/>
    <path d="M244 460h536"/>
    <path d="M244 346h536"/>
    <path d="M328 286v442"/>
    <path d="M464 286v442"/>
    <path d="M600 286v442"/>
    <path d="M736 286v442"/>
  </g>
  <path d="M254 654c68-64 121-118 188-88 56 25 86 90 148 46 70-49 93-190 188-250" fill="none" stroke="url(#line)" stroke-width="46" stroke-linecap="round" stroke-linejoin="round"/>
  <g fill="#1d1d1f">
    <circle cx="254" cy="654" r="20" fill="#0a84ff"/>
    <circle cx="442" cy="566" r="20" fill="#34c759"/>
    <circle cx="590" cy="612" r="20" fill="#34c759"/>
    <circle cx="778" cy="362" r="20" fill="#ff9f0a"/>
  </g>
  <text x="512" y="772" text-anchor="middle" font-family="-apple-system, BlinkMacSystemFont, 'PingFang SC', Arial, sans-serif" font-size="74" font-weight="760" fill="#1d1d1f">ETF</text>
  <text x="512" y="824" text-anchor="middle" font-family="-apple-system, BlinkMacSystemFont, 'PingFang SC', Arial, sans-serif" font-size="30" font-weight="560" fill="#6e6e73">Research</text>
</svg>
